<svg width="150" height="50" viewBox="0 0 150 50" fill="none" xmlns="http://www.w3.org/2000/svg">
<path d="M86 23.7778H76.2222V14H73.7778V23.7778H64V26.2222H73.7778V36H76.2222V26.2222H86V23.7778Z" fill="#1C1C1C"/>
<path fill-rule="evenodd" clip-rule="evenodd" d="M86 23.7778H76.2222V14H73.7778V23.7778H64V26.2222H73.7778V36H76.2222V26.2222H86V23.7778Z" fill="#1C1C1C"/>
<path fill-rule="evenodd" clip-rule="evenodd" d="M0 2C0 0.895432 0.895431 0 2 0H148C149.105 0 150 0.895431 150 2V48C150 49.1046 149.105 50 148 50H2C0.895429 50 0 49.1046 0 48V2ZM2 48V2H148V48H2Z" fill="#1C1C1C"/>
</svg>
