<svg width="282" height="50" viewBox="0 0 282 50" fill="none" xmlns="http://www.w3.org/2000/svg">
<path d="M150 24.1111H142.889V17H141.111V24.1111H134V25.8889H141.111V33H142.889V25.8889H150V24.1111Z" fill="#1C1C1C"/>
<path fill-rule="evenodd" clip-rule="evenodd" d="M150 24.1111H142.889V17H141.111V24.1111H134V25.8889H141.111V33H142.889V25.8889H150V24.1111Z" fill="#1C1C1C"/>
<path fill-rule="evenodd" clip-rule="evenodd" d="M0 2C0 0.895432 0.89543 0 2 0H280C281.105 0 282 0.895431 282 2V48C282 49.1046 281.105 50 280 50H1.99999C0.895425 50 0 49.1046 0 48V2ZM1.99999 48L2 2H280V48H1.99999Z" fill="#1C1C1C"/>
</svg>
