<svg width="142" height="33" viewBox="0 0 142 33" fill="none" xmlns="http://www.w3.org/2000/svg">
<path d="M0 31.3795H1.76659V19.6205H0V18.2493H8.22724C9.43861 18.2493 10.5574 18.4155 11.5837 18.7479C12.6269 19.0665 13.527 19.5374 14.2841 20.1607C15.0412 20.7701 15.6301 21.5249 16.0507 22.4252C16.4881 23.3255 16.7068 24.3504 16.7068 25.5C16.7068 26.6496 16.4881 27.6745 16.0507 28.5748C15.6301 29.4751 15.0412 30.2368 14.2841 30.8601C13.527 31.4695 12.6269 31.9404 11.5837 32.2729C10.5574 32.5914 9.43861 32.7507 8.22724 32.7507H0V31.3795ZM5.85497 31.2548H7.49537C8.3366 31.2548 9.05164 31.1856 9.64051 31.0471C10.2462 30.9086 10.7341 30.6939 11.1042 30.403C11.4912 30.0983 11.7688 29.7036 11.9371 29.2188C12.1221 28.7202 12.2147 28.1177 12.2147 27.4114V23.5886C12.2147 22.8823 12.1221 22.2867 11.9371 21.8019C11.7688 21.3033 11.4912 20.9086 11.1042 20.6177C10.7341 20.313 10.2462 20.0914 9.64051 19.9529C9.05164 19.8144 8.3366 19.7452 7.49537 19.7452H5.85497V31.2548Z" fill="black"/>
<path d="M19.0509 31.3795H20.8175V19.6205H19.0509V18.2493H26.6725V19.6205H24.9059V31.3795H26.6725V32.7507H19.0509V31.3795Z" fill="black"/>
<path d="M28.7366 31.3795H30.5032V19.6205H28.7366V18.2493H38.4528C40.3035 18.2493 41.6831 18.5886 42.5917 19.2673C43.517 19.9321 43.9797 20.9155 43.9797 22.2175C43.9797 23.5332 43.4834 24.5651 42.4907 25.313C41.4981 26.0471 40.0764 26.4141 38.2257 26.4141H34.5915V31.3795H36.9891V32.7507H28.7366V31.3795ZM34.5915 24.9183H37.09C37.9481 24.9183 38.6126 24.7521 39.0837 24.4197C39.5716 24.0734 39.8156 23.554 39.8156 22.8615V21.8019C39.8156 21.1094 39.5716 20.597 39.0837 20.2645C38.6126 19.9183 37.9481 19.7452 37.09 19.7452H34.5915V24.9183Z" fill="black"/>
<path d="M45.9144 31.3795H47.681V19.6205H45.9144V18.2493H53.6622V19.6205H51.7694V31.2548H56.5644V28.4709H59.4919V32.7507H45.9144V31.3795Z" fill="black"/>
<path d="M69.4788 31.4626C70.0004 31.4626 70.4883 31.3934 70.9426 31.2548C71.3968 31.1163 71.7922 30.9017 72.1287 30.6108C72.482 30.3199 72.7596 29.946 72.9615 29.4889C73.1634 29.0319 73.2644 28.4848 73.2644 27.8476V23.1524C73.2644 22.5152 73.1634 21.9681 72.9615 21.5111C72.7596 21.054 72.482 20.6801 72.1287 20.3892C71.7922 20.0983 71.3968 19.8837 70.9426 19.7452C70.4883 19.6066 70.0004 19.5374 69.4788 19.5374C68.9573 19.5374 68.4694 19.6066 68.0151 19.7452C67.5608 19.8837 67.157 20.0983 66.8037 20.3892C66.4672 20.6801 66.198 21.054 65.9961 21.5111C65.7942 21.9681 65.6933 22.5152 65.6933 23.1524V27.8476C65.6933 28.4848 65.7942 29.0319 65.9961 29.4889C66.198 29.946 66.4672 30.3199 66.8037 30.6108C67.157 30.9017 67.5608 31.1163 68.0151 31.2548C68.4694 31.3934 68.9573 31.4626 69.4788 31.4626ZM69.4788 33C68.3011 33 67.2075 32.8338 66.198 32.5014C65.1886 32.169 64.3137 31.6911 63.5734 31.0679C62.8331 30.4307 62.2527 29.6482 61.832 28.7202C61.4114 27.7784 61.2011 26.705 61.2011 25.5C61.2011 24.295 61.4114 23.2285 61.832 22.3006C62.2527 21.3587 62.8331 20.5762 63.5734 19.9529C64.3137 19.3158 65.1886 18.831 66.198 18.4986C67.2075 18.1662 68.3011 18 69.4788 18C70.6566 18 71.7502 18.1662 72.7596 18.4986C73.7691 18.831 74.644 19.3158 75.3843 19.9529C76.1246 20.5762 76.705 21.3587 77.1256 22.3006C77.5462 23.2285 77.7565 24.295 77.7565 25.5C77.7565 26.705 77.5462 27.7784 77.1256 28.7202C76.705 29.6482 76.1246 30.4307 75.3843 31.0679C74.644 31.6911 73.7691 32.169 72.7596 32.5014C71.7502 32.8338 70.6566 33 69.4788 33Z" fill="black"/>
<path d="M80.0977 31.3795H81.8643V19.6205H80.0977V18.2493H86.4574L90.3943 25.2299H90.4953L94.1799 18.2493H100.641V19.6205H98.8739V31.3795H100.641V32.7507H93.019V31.3795H94.7856V20.8047H94.6341L93.1704 23.8379L89.3091 30.5277L85.4731 23.8379L83.9842 20.8047H83.8327V31.3795H85.5993V32.7507H80.0977V31.3795Z" fill="black"/>
<path d="M102.041 31.3795H103.303L108.779 18.2493H112.262L117.738 31.3795H119V32.7507H111.606V31.3795H113.625L112.413 28.3255H106.659L105.448 31.3795H107.467V32.7507H102.041V31.3795ZM107.164 26.892H111.959L109.587 20.7839H109.486L107.164 26.892Z" fill="black"/>
<path d="M119 19.0188H119.38V16.2422L119 16.2004V16.0919L119.663 16V19.0188H120.044V19.1649H119V19.0188Z" fill="black"/>
<path d="M121.562 19.215C121.224 19.215 120.955 19.1176 120.757 18.9228C120.559 18.7279 120.459 18.4523 120.459 18.096C120.459 17.9262 120.485 17.7717 120.537 17.6326C120.593 17.4934 120.669 17.3765 120.767 17.2818C120.864 17.1844 120.98 17.1093 121.113 17.0564C121.246 17.0035 121.393 16.977 121.552 16.977C121.708 16.977 121.848 17.0021 121.971 17.0522C122.098 17.1023 122.205 17.1719 122.293 17.261C122.381 17.3473 122.448 17.453 122.493 17.5783C122.542 17.7008 122.566 17.8344 122.566 17.9791V18.0501H120.772V18.1837C120.772 18.4537 120.848 18.6611 121.001 18.8058C121.154 18.9506 121.354 19.023 121.601 19.023C121.806 19.023 121.971 18.984 122.098 18.9061C122.228 18.8281 122.327 18.7321 122.396 18.618L122.518 18.6806C122.485 18.7474 122.441 18.8128 122.386 18.8768C122.331 18.9408 122.262 18.9979 122.181 19.048C122.103 19.0981 122.012 19.1385 121.908 19.1691C121.807 19.1997 121.692 19.215 121.562 19.215ZM120.772 17.9081H122.269V17.8831C122.269 17.7745 122.254 17.6743 122.225 17.5825C122.196 17.4906 122.15 17.4113 122.088 17.3445C122.03 17.2749 121.955 17.222 121.864 17.1858C121.776 17.1468 121.672 17.1273 121.552 17.1273C121.432 17.1273 121.323 17.1454 121.225 17.1816C121.131 17.2178 121.05 17.2693 120.981 17.3361C120.913 17.4029 120.861 17.4823 120.825 17.5741C120.789 17.666 120.772 17.7676 120.772 17.8789V17.9081Z" fill="black"/>
<path d="M124.101 19.8539H124.481V17.2276L124.101 17.1858V17.0772L124.764 16.9854V17.3653H124.784C124.839 17.2596 124.928 17.1691 125.052 17.0939C125.175 17.016 125.341 16.977 125.549 16.977C125.868 16.977 126.118 17.0717 126.3 17.261C126.486 17.4502 126.578 17.7286 126.578 18.096C126.578 18.4635 126.486 18.7418 126.3 18.9311C126.118 19.1204 125.868 19.215 125.549 19.215C125.345 19.215 125.179 19.1775 125.052 19.1023C124.925 19.0244 124.836 18.9339 124.784 18.8309H124.764V19.8539H125.242V20H124.101V19.8539ZM125.476 19.0397C125.73 19.0397 125.925 18.9687 126.061 18.8267C126.201 18.682 126.271 18.4871 126.271 18.2422V17.9499C126.271 17.7049 126.201 17.5115 126.061 17.3695C125.925 17.2248 125.73 17.1524 125.476 17.1524C125.385 17.1524 125.297 17.1635 125.213 17.1858C125.128 17.2081 125.052 17.2401 124.984 17.2818C124.919 17.3236 124.865 17.3737 124.823 17.4322C124.784 17.4906 124.764 17.5574 124.764 17.6326V18.5595C124.764 18.6347 124.784 18.7015 124.823 18.7599C124.865 18.8184 124.919 18.8685 124.984 18.9102C125.052 18.952 125.128 18.984 125.213 19.0063C125.297 19.0285 125.385 19.0397 125.476 19.0397Z" fill="black"/>
<path d="M128.229 19.215C127.891 19.215 127.623 19.1176 127.425 18.9228C127.226 18.7279 127.127 18.4523 127.127 18.096C127.127 17.9262 127.153 17.7717 127.205 17.6326C127.261 17.4934 127.337 17.3765 127.434 17.2818C127.532 17.1844 127.647 17.1093 127.781 17.0564C127.914 17.0035 128.06 16.977 128.22 16.977C128.376 16.977 128.516 17.0021 128.639 17.0522C128.766 17.1023 128.873 17.1719 128.961 17.261C129.049 17.3473 129.115 17.453 129.161 17.5783C129.21 17.7008 129.234 17.8344 129.234 17.9791V18.0501H127.439V18.1837C127.439 18.4537 127.516 18.6611 127.669 18.8058C127.821 18.9506 128.021 19.023 128.268 19.023C128.473 19.023 128.639 18.984 128.766 18.9061C128.896 18.8281 128.995 18.7321 129.063 18.618L129.185 18.6806C129.153 18.7474 129.109 18.8128 129.054 18.8768C128.998 18.9408 128.93 18.9979 128.849 19.048C128.771 19.0981 128.68 19.1385 128.576 19.1691C128.475 19.1997 128.359 19.215 128.229 19.215ZM127.439 17.9081H128.937V17.8831C128.937 17.7745 128.922 17.6743 128.893 17.5825C128.863 17.4906 128.818 17.4113 128.756 17.3445C128.698 17.2749 128.623 17.222 128.532 17.1858C128.444 17.1468 128.34 17.1273 128.22 17.1273C128.099 17.1273 127.99 17.1454 127.893 17.1816C127.799 17.2178 127.717 17.2693 127.649 17.3361C127.581 17.4029 127.529 17.4823 127.493 17.5741C127.457 17.666 127.439 17.7676 127.439 17.8789V17.9081Z" fill="black"/>
<path d="M129.699 19.0188H130.079V17.2276L129.699 17.1858V17.0772L130.357 16.9854V17.382H130.376C130.399 17.3347 130.428 17.2874 130.464 17.2401C130.503 17.19 130.549 17.1454 130.601 17.1065C130.656 17.0675 130.719 17.0369 130.791 17.0146C130.863 16.9896 130.944 16.977 131.035 16.977C131.155 16.977 131.249 17.0007 131.318 17.048C131.389 17.0926 131.425 17.1594 131.425 17.2484C131.425 17.3125 131.405 17.3626 131.366 17.3987C131.327 17.4349 131.277 17.453 131.215 17.453C131.144 17.453 131.087 17.4377 131.045 17.4071C131.006 17.3737 130.986 17.3305 130.986 17.2777C130.986 17.2359 130.997 17.2011 131.02 17.1733C131.043 17.1454 131.067 17.1287 131.093 17.1232V17.1148C131.067 17.112 131.046 17.1106 131.03 17.1106C131.014 17.1106 130.996 17.1106 130.976 17.1106C130.905 17.1106 130.832 17.126 130.757 17.1566C130.685 17.1872 130.62 17.2276 130.562 17.2777C130.503 17.3278 130.454 17.3848 130.415 17.4489C130.38 17.5129 130.362 17.5783 130.362 17.6451V19.0188H130.845V19.1649H129.699V19.0188Z" fill="black"/>
<path d="M132.679 19.215C132.506 19.215 132.363 19.1886 132.25 19.1357C132.139 19.08 132.061 19.016 132.015 18.9436H132.001V19.1649H131.786V18.5344H132.001V18.6472C132.001 18.778 132.056 18.8796 132.167 18.952C132.277 19.0244 132.433 19.0605 132.635 19.0605C132.84 19.0605 132.997 19.0271 133.108 18.9603C133.218 18.8935 133.274 18.7905 133.274 18.6514C133.274 18.5317 133.231 18.4384 133.147 18.3716C133.066 18.3048 132.944 18.2561 132.781 18.2255L132.523 18.1795C132.295 18.135 132.118 18.0654 131.991 17.9708C131.867 17.8733 131.806 17.7328 131.806 17.5491C131.806 17.3653 131.88 17.2248 132.03 17.1273C132.183 17.0271 132.381 16.977 132.625 16.977C132.794 16.977 132.929 17.0007 133.03 17.048C133.134 17.0953 133.204 17.1538 133.24 17.2234H133.259V17.0271H133.474V17.6576H133.259V17.5073C133.259 17.382 133.207 17.2888 133.103 17.2276C133.002 17.1635 132.854 17.1315 132.659 17.1315C132.477 17.1315 132.334 17.1635 132.23 17.2276C132.126 17.2888 132.074 17.3834 132.074 17.5115C132.074 17.634 132.116 17.7286 132.201 17.7954C132.289 17.8594 132.41 17.9068 132.567 17.9374L132.815 17.9833C133.053 18.0278 133.233 18.0974 133.357 18.1921C133.483 18.2867 133.547 18.4259 133.547 18.6096C133.547 18.7878 133.47 18.9339 133.318 19.048C133.165 19.1594 132.952 19.215 132.679 19.215Z" fill="black"/>
<path d="M135.193 19.0605C135.323 19.0605 135.436 19.0411 135.534 19.0021C135.631 18.9631 135.713 18.9102 135.778 18.8434C135.846 18.7738 135.896 18.6917 135.929 18.5971C135.961 18.4997 135.978 18.3925 135.978 18.2756V17.9165C135.978 17.7996 135.961 17.6938 135.929 17.5992C135.896 17.5017 135.846 17.4196 135.778 17.3528C135.713 17.2832 135.631 17.2289 135.534 17.19C135.436 17.151 135.323 17.1315 135.193 17.1315C135.062 17.1315 134.949 17.151 134.851 17.19C134.754 17.2289 134.671 17.2832 134.602 17.3528C134.537 17.4196 134.489 17.5017 134.456 17.5992C134.424 17.6938 134.407 17.7996 134.407 17.9165V18.2756C134.407 18.3925 134.424 18.4997 134.456 18.5971C134.489 18.6917 134.537 18.7738 134.602 18.8434C134.671 18.9102 134.754 18.9631 134.851 19.0021C134.949 19.0411 135.062 19.0605 135.193 19.0605ZM135.193 19.215C135.023 19.215 134.871 19.19 134.734 19.1399C134.601 19.0898 134.485 19.0174 134.388 18.9228C134.294 18.8253 134.22 18.707 134.168 18.5678C134.116 18.4287 134.09 18.2714 134.09 18.096C134.09 17.9207 134.116 17.7648 134.168 17.6284C134.22 17.4892 134.294 17.3723 134.388 17.2777C134.485 17.1802 134.601 17.1065 134.734 17.0564C134.871 17.0035 135.023 16.977 135.193 16.977C135.362 16.977 135.513 17.0035 135.646 17.0564C135.783 17.1065 135.898 17.1802 135.992 17.2777C136.09 17.3723 136.165 17.4892 136.217 17.6284C136.269 17.7648 136.295 17.9207 136.295 18.096C136.295 18.2714 136.269 18.4287 136.217 18.5678C136.165 18.707 136.09 18.8253 135.992 18.9228C135.898 19.0174 135.783 19.0898 135.646 19.1399C135.513 19.19 135.362 19.215 135.193 19.215Z" fill="black"/>
<path d="M136.766 19.0188H137.147V17.2276L136.766 17.1858V17.0772L137.425 16.9854V17.3612H137.444C137.464 17.3138 137.493 17.2679 137.532 17.2234C137.574 17.1761 137.626 17.1343 137.688 17.0981C137.75 17.0619 137.821 17.0327 137.903 17.0104C137.984 16.9882 138.077 16.977 138.181 16.977C138.477 16.977 138.69 17.0438 138.82 17.1775C138.953 17.3111 139.02 17.5129 139.02 17.7829V19.0188H139.4V19.1649H138.356V19.0188H138.737V17.8079C138.737 17.5825 138.683 17.4168 138.576 17.3111C138.468 17.2053 138.306 17.1524 138.088 17.1524C138.004 17.1524 137.922 17.1621 137.844 17.1816C137.766 17.2011 137.696 17.2317 137.635 17.2735C137.573 17.3125 137.522 17.3626 137.483 17.4238C137.448 17.4823 137.43 17.5518 137.43 17.6326V19.0188H137.81V19.1649H136.766V19.0188Z" fill="black"/>
<path d="M140.576 19.215C140.339 19.215 140.152 19.1635 140.015 19.0605C139.882 18.9548 139.815 18.8142 139.815 18.6388C139.815 18.5358 139.835 18.4468 139.874 18.3716C139.913 18.2937 139.976 18.2283 140.064 18.1754C140.152 18.1225 140.264 18.0835 140.4 18.0585C140.54 18.0306 140.709 18.0167 140.908 18.0167H141.342V17.6701C141.342 17.492 141.288 17.357 141.181 17.2651C141.073 17.1705 140.917 17.1232 140.712 17.1232C140.595 17.1232 140.495 17.1315 140.41 17.1482C140.326 17.1649 140.261 17.1872 140.215 17.215V17.2234C140.251 17.2373 140.282 17.2596 140.308 17.2902C140.337 17.318 140.352 17.3556 140.352 17.4029C140.352 17.4586 140.332 17.5031 140.293 17.5365C140.254 17.5672 140.202 17.5825 140.137 17.5825C140.072 17.5825 140.02 17.5672 139.981 17.5365C139.942 17.5031 139.922 17.4558 139.922 17.3946C139.922 17.3417 139.942 17.2902 139.981 17.2401C140.023 17.19 140.082 17.1454 140.156 17.1065C140.235 17.0675 140.327 17.0369 140.434 17.0146C140.542 16.9896 140.662 16.977 140.795 16.977C141.052 16.977 141.254 17.0341 141.4 17.1482C141.55 17.2624 141.624 17.4252 141.624 17.6367V19.0313H142V19.1399C141.967 19.1594 141.92 19.1747 141.859 19.1858C141.8 19.1997 141.74 19.2067 141.678 19.2067C141.464 19.2067 141.356 19.1148 141.356 18.9311V18.8225H141.337C141.314 18.8699 141.283 18.9172 141.244 18.9645C141.208 19.0118 141.16 19.055 141.098 19.0939C141.036 19.1301 140.963 19.1594 140.878 19.1816C140.794 19.2039 140.693 19.215 140.576 19.215ZM140.678 19.048C140.867 19.048 141.025 19.0049 141.151 18.9186C141.278 18.8323 141.342 18.7154 141.342 18.5678V18.142H140.947C140.791 18.142 140.659 18.1517 140.552 18.1712C140.447 18.1907 140.363 18.2199 140.298 18.2589C140.236 18.2951 140.191 18.341 140.161 18.3967C140.135 18.4495 140.122 18.5108 140.122 18.5804V18.6764C140.122 18.7905 140.171 18.881 140.269 18.9478C140.366 19.0146 140.503 19.048 140.678 19.048Z" fill="black"/>
</svg>
